#!OML:ASF H:\Pregnant\Project 1\Capture day 1\Session 1\femalepreg.ASF
:FULLY-SPECIFIED
:DEGREES
283
root 9.43715 15.0068 21.014 -120.14 -12.5833 -171.174
lowerback 4.01067 2.5571 -4.24311
upperback -0.95546 3.14124 -1.38969
thorax -3.38569 1.63199 0.721069
lowerneck -42.2242 6.87401 -3.22894
upperneck -8.18826 6.70564 -5.85911
head 3.13216 1.11595 -0.755534
rclavicle 1.43125e-014 -4.77083e-015
rhumerus 22.1091 10.0882 -72.4444
rradius 63.9232
rwrist -35.0407
rhand -12.6997 -30.4914
rfingers 7.12502
rthumb 13.3827 -60.0416
lclavicle 1.43125e-014 -4.77083e-015
lhumerus 15.0559 -30.8136 83.5074
lradius 60.7898
lwrist 75.1009
lhand -33.2938 -2.25983
lfingers 7.12502
lthumb -6.4979 27.6205
rfemur -88.7306 0.47129 16.7508
rtibia 33.0849
rfoot -0.0834163 -11.3807
rtoes -28.007
lfemur -81.0398 12.6336 16.6927
ltibia 30.5074
lfoot 1.99251 23.2889
ltoes -34.8273
284
root 9.43961 15.0339 20.9985 -121.013 -12.7394 -171.201
lowerback 4.16011 2.54132 -4.27058
upperback -0.952772 3.10949 -1.38215
thorax -3.46764 1.61743 0.739422
lowerneck -42.1286 6.85327 -3.17131
upperneck -8.2207 6.65389 -5.84707
head 3.11412 1.09888 -0.766536
rclavicle -4.77083e-015 -2.8625e-014
rhumerus 21.0077 10.1402 -72.5104
rradius 64.7694
rwrist -35.1914
rhand -12.8238 -30.5779
rfingers 7.12502
rthumb 13.2631 -60.1359
lclavicle -4.77083e-015 -2.8625e-014
lhumerus 14.303 -31.4392 83.4986
lradius 61.3658
lwrist 75.3784
lhand -33.2743 -2.25693
lfingers 7.12502
lthumb -6.47898 27.624
rfemur -87.5716 0.560244 16.6969
rtibia 32.9802
rfoot -0.182937 -11.649
rtoes -27.9841
lfemur -80.097 12.1041 16.6652
ltibia 30.1509
lfoot 2.03207 23.0362
ltoes -34.9285
285
root 9.44146 15.0639 20.9812 -121.954 -12.9025 -171.222
lowerback 4.36486 2.52853 -4.29421
upperback -0.933073 3.07985 -1.35921
thorax -3.56386 1.60401 0.769388
lowerneck -42.0374 6.81953 -3.14026
upperneck -8.23939 6.5994 -5.81291
head 3.09895 1.08341 -0.766298
rclavicle 3.97569e-015 3.97569e-015
rhumerus 19.9113 10.2232 -72.5461
rradius 65.6328
rwrist -35.3248
rhand -12.9548 -30.6657
rfingers 7.12502
rthumb 13.1367 -60.2319
lclavicle 3.97569e-015 3.97569e-015
lhumerus 13.5395 -32.0591 83.5096
lradius 61.9554
lwrist 75.5872
lhand -33.3903 -2.27086
lfingers 7.12502
lthumb -6.59096 27.6066
rfemur -86.2961 0.668822 16.6366
rtibia 32.823
rfoot -0.276023 -11.9407
rtoes -27.9489
lfemur -79.0628 11.5357 16.6376
ltibia 29.7536
lfoot 2.07768 22.7728
ltoes -35.0389
286
root 9.44262 15.0964 20.962 -122.966 -13.0672 -171.233
lowerback 4.63431 2.52155 -4.31336
upperback -0.898863 3.05515 -1.32683
thorax -3.68198 1.59313 0.803775
lowerneck -41.9747 6.76363 -3.14485
upperneck -8.22265 6.53668 -5.74201
head 3.09493 1.06781 -0.749123
rclavicle -5.56597e-015 3.97569e-015
rhumerus 18.8144 10.3274 -72.5699
rradius 66.5139
rwrist -35.4369
rhand -13.1081 -30.7397
rfingers 7.12502
rthumb 12.989 -60.3154
lclavicle -5.56597e-015 3.97569e-015
lhumerus 12.7736 -32.6834 83.5299
lradius 62.5506
lwrist 75.7256
lhand -33.5051 -2.27625
lfingers 7.12502
lthumb -6.70185 27.5977
rfemur -84.901 0.801162 16.5743
rtibia 32.6103
rfoot -0.365663 -12.2514
rtoes -27.886
lfemur -77.9335 10.9311 16.6085
ltibia 29.3224
lfoot 2.12041 22.5016
ltoes -35.1495
287
root 9.44329 15.132 20.94 -124.077 -13.2308 -171.236
lowerback 5.00359 2.52333 -4.33871
upperback -0.844337 3.03684 -1.28074
thorax -3.83667 1.58579 0.851372
lowerneck -41.9186 6.70458 -3.15112
upperneck -8.183 6.47529 -5.66602
head 3.09897 1.054 -0.729656
rclavicle -4.05521e-014 -1.78906e-014
rhumerus 17.716 10.452 -72.5812
rradius 67.4102
rwrist -35.5296
rhand -13.287 -30.8153
rfingers 7.12502
rthumb 12.8165 -60.4019
lclavicle -4.05521e-014 -1.78906e-014
lhumerus 12.018 -33.3085 83.5596
lradius 63.1374
lwrist 75.8157
lhand -33.606 -2.26581
lfingers 7.12502
lthumb -6.79924 27.605
rfemur -83.3534 0.959034 16.5178
rtibia 32.3463
rfoot -0.46469 -12.5729
rtoes -27.7995
lfemur -76.6833 10.2726 16.5759
ltibia 28.8689
lfoot 2.14647 22.2234
ltoes -35.2622
288
root 9.44298 15.1673 20.9174 -125.21 -13.3849 -171.229
lowerback 5.38898 2.52994 -4.36388
upperback -0.789216 3.02406 -1.22855
thorax -4.00037 1.58133 0.904156
lowerneck -41.8741 6.63285 -3.17888
upperneck -8.11938 6.41082 -5.56511
head 3.11012 1.04181 -0.698757
rclavicle -2.78299e-014 -4.77083e-014
rhumerus 16.623 10.5964 -72.5857
rradius 68.3152
rwrist -35.5956
rhand -13.4818 -30.904
rfingers 7.12502
rthumb 12.6288 -60.5022
lclavicle -2.78299e-014 -4.77083e-014
lhumerus 11.2702 -33.9248 83.6008
lradius 63.7108
lwrist 75.8826
lhand -33.7232 -2.26992
lfingers 7.12502
lthumb -6.91235 27.5972
rfemur -81.7606 1.13444 16.4607
rtibia 32.0445
rfoot -0.561042 -12.8964
rtoes -27.6854
lfemur -75.4009 9.60631 16.5436
ltibia 28.4171
lfoot 2.15808 21.959
ltoes -35.3508
